<mxfile host="app.diagrams.net" modified="2023-11-17T02:36:42.168Z" agent="Mozilla/5.0 (Windows NT 10.0; Win64; x64) AppleWebKit/537.36 (KHTML, like Gecko) Chrome/119.0.0.0 Safari/537.36" version="22.1.2" etag="txWAK8C_sMqVtvXMFC-y" type="github">
  <diagram name="第 1 页" id="3iq-_0w-HCxjwkHv1Ylv">
    <mxGraphModel>
      <root>
        <mxCell id="0" />
        <mxCell id="1" parent="0" />
      </root>
    </mxGraphModel>
  </diagram>
</mxfile>
